<svg width="200" height="200" viewBox="0 0 200 200" fill="none" xmlns="http://www.w3.org/2000/svg">
<path d="M25 0C11.2151 0 0 11.2151 0 25C0 38.7839 11.2151 50 25 50C38.7839 50 50 38.7839 50 25C50 11.2151 38.7859 0 25 0ZM31.2173 25.8801H27.15C27.15 32.3784 27.15 40.377 27.15 40.377H21.123C21.123 40.377 21.123 32.4559 21.123 25.8801H18.2581V20.7565H21.123V17.4424C21.123 15.0689 22.2509 11.3601 27.2053 11.3601L31.6714 11.3772V16.3508C31.6714 16.3508 28.9575 16.3508 28.4299 16.3508C27.9022 16.3508 27.152 16.6146 27.152 17.7465V20.7575H31.7439L31.2173 25.8801Z" transform="scale(4)" fill="black"/>
</svg>
