<svg width="200" height="200" viewBox="0 0 200 200" fill="none" xmlns="http://www.w3.org/2000/svg">
<path d="M0 0H50V50H0V0ZM11.9318 16.722V31.5682C12.0232 32.1037 11.8543 32.6508 11.4771 33.0418L7.94872 37.3216V37.886H17.9535V37.3216L14.4252 33.0418C14.0451 32.6514 13.8658 32.108 13.939 31.5682V18.7287L22.7207 37.886H23.74L31.2828 18.7287V33.9981C31.2828 34.4057 31.2828 34.4841 31.0162 34.7506L28.3033 37.3843V37.9487H41.4757V37.3843L38.8569 34.8133C38.6258 34.6371 38.5111 34.3475 38.559 34.0608V15.17C38.5111 14.8833 38.6258 14.5937 38.8569 14.4175L41.5385 11.8464V11.2821H32.255L25.6374 27.79L18.1103 11.2821H8.37212V11.8464L11.5084 15.6246C11.8163 15.9021 11.9735 16.3097 11.9318 16.722Z" transform="scale(4)" fill="black"/>
</svg>
