<?xml version="1.0" standalone="no"?>
<!DOCTYPE svg PUBLIC "-//W3C//DTD SVG 20010904//EN"
 "http://www.w3.org/TR/2001/REC-SVG-20010904/DTD/svg10.dtd">
<svg version="1.0" xmlns="http://www.w3.org/2000/svg"
 width="1024.000000pt" height="1024.000000pt" viewBox="0 0 1024.000000 1024.000000"
 preserveAspectRatio="xMidYMid meet">
<metadata>
Created by potrace 1.15, written by Peter Selinger 2001-2017
</metadata>
<g transform="translate(0.000000,1024.000000) scale(0.100000,-0.100000)"
fill="#000000" stroke="none">
<path d="M4795 10009 c-1219 -73 -2457 -657 -3229 -1524 -302 -340 -532 -678
-731 -1075 -483 -962 -630 -2003 -429 -3031 80 -411 211 -797 408 -1204 336
-693 767 -1220 1371 -1675 682 -513 1508 -843 2373 -947 214 -26 805 -25 1017
1 558 68 1073 220 1580 465 699 339 1224 769 1678 1374 190 253 315 455 462
749 575 1151 669 2412 270 3613 -181 542 -536 1168 -931 1641 -183 219 -369
397 -631 601 -913 710 -2083 1079 -3208 1012z m2463 -2880 c79 -39 132 -136
132 -243 0 -36 -730 -3504 -800 -3803 -57 -242 -181 -312 -379 -216 -31 16
-318 223 -639 461 l-583 434 -62 -58 c-34 -33 -165 -158 -290 -279 -125 -121
-256 -239 -290 -262 -60 -40 -150 -74 -162 -61 -4 4 14 271 39 595 26 323 46
591 46 595 0 4 492 456 1093 1005 600 549 1102 1009 1115 1022 51 55 8 104
-73 83 -24 -7 -531 -319 -1235 -763 -657 -413 -1279 -804 -1382 -869 l-187
-118 -188 58 c-207 64 -856 262 -998 305 -102 31 -165 80 -165 129 0 66 55
129 156 180 28 14 606 240 1285 502 679 262 1707 658 2284 881 578 223 1075
414 1105 424 74 24 125 23 178 -2z"/>
</g>
</svg>
