<svg width="200" height="200" viewBox="0 0 200 200" fill="none" xmlns="http://www.w3.org/2000/svg">
<path d="M5.00282 10.0097C7.76102 10.0097 10.0097 7.76504 10.0097 5.00483C10.0097 3.91525 9.65319 2.90925 9.06308 2.08753C8.15375 0.826755 6.67546 9.06578e-07 5.00584 9.06578e-07C3.33522 9.06578e-07 1.85794 0.825747 0.946592 2.08652C0.354471 2.90824 0.00101041 3.91424 3.3966e-06 5.00383C-0.00301763 7.76404 2.24362 10.0097 5.00282 10.0097Z" transform="translate(79.9883 79.9805) scale(4)" fill="black"/>
<path d="M4.82055 4.81954V0.624345V3.84143e-08L4.19319 0.00201391L7.52921e-07 0.0151055L0.0161117 4.83566L4.82055 4.81954Z" transform="translate(124.43 56.2305) scale(4)" fill="black"/>
<path d="M25 0C11.2151 0 0 11.2151 0 25C0 38.7839 11.2151 50 25 50C38.7839 50 50 38.7839 50 25C50 11.2151 38.7859 0 25 0ZM39.218 22.0827V33.7237C39.218 36.7558 36.7528 39.22 33.7227 39.22H16.2773C13.2462 39.22 10.782 36.7558 10.782 33.7237V22.0827V16.2783C10.782 13.2472 13.2462 10.7831 16.2773 10.7831H33.7217C36.7528 10.7831 39.218 13.2472 39.218 16.2783V22.0827Z" transform="scale(4)" fill="black"/>
<path d="M19.2258 2.9173C19.2258 7.20414 15.7375 10.6944 11.4487 10.6944C7.15983 10.6944 3.67256 7.20414 3.67256 2.9173C3.67256 1.88613 3.87799 0.900267 4.24454 8.60481e-07H-2.22803e-07V11.641C-2.22803e-07 13.1455 1.2215 14.364 2.72497 14.364H20.1694C21.6708 14.364 22.8943 13.1455 22.8943 11.641V8.60481e-07H18.6478C19.0174 0.900267 19.2258 1.88613 19.2258 2.9173Z" transform="translate(54.207 88.332) scale(4)" fill="black"/>
</svg>
